<?xml version="1.0" encoding="UTF-8" standalone="no"?>
<!-- Created with Inkscape (http://www.inkscape.org/) -->

<svg
   xmlns:dc="http://purl.org/dc/elements/1.1/"
   xmlns:cc="http://creativecommons.org/ns#"
   xmlns:rdf="http://www.w3.org/1999/02/22-rdf-syntax-ns#"
   xmlns:svg="http://www.w3.org/2000/svg"
   xmlns="http://www.w3.org/2000/svg"
   xmlns:sodipodi="http://sodipodi.sourceforge.net/DTD/sodipodi-0.dtd"
   xmlns:inkscape="http://www.inkscape.org/namespaces/inkscape"
   width="128.00002mm"
   height="128.00002mm"
   viewBox="0 0 128.00002 128.00002"
   version="1.1"
   id="svg818"
   inkscape:version="0.92.4 (5da689c313, 2019-01-14)"
   sodipodi:docname="logo.svg">
  <defs
     id="defs812" />
  <sodipodi:namedview
     id="base"
     pagecolor="#ffffff"
     bordercolor="#666666"
     borderopacity="1.0"
     inkscape:pageopacity="0.0"
     inkscape:pageshadow="2"
     inkscape:zoom="0.33890136"
     inkscape:cx="-308.31303"
     inkscape:cy="148.63394"
     inkscape:document-units="mm"
     inkscape:current-layer="layer1"
     showgrid="false"
     inkscape:window-width="1366"
     inkscape:window-height="705"
     inkscape:window-x="-8"
     inkscape:window-y="-8"
     inkscape:window-maximized="1" />
  <metadata
     id="metadata815">
    <rdf:RDF>
      <cc:Work
         rdf:about="">
        <dc:format>image/svg+xml</dc:format>
        <dc:type
           rdf:resource="http://purl.org/dc/dcmitype/StillImage" />
        <dc:title />
      </cc:Work>
    </rdf:RDF>
  </metadata>
  <g
     inkscape:label="Camada 1"
     inkscape:groupmode="layer"
     id="layer1"
     transform="translate(-40.999996,-68.095814)">
    <g
       id="g1418"
       transform="matrix(1.6050578,0,0,1.6050578,58.618787,52.527567)"
       style="fill:#011d39;fill-opacity:1">
      <path
         id="path1363"
         d="m 59,23.556 h -1.072 c -0.342,-1.593 -1.504,-2.929 -3.435,-3.895 -1.467,-0.733 -3.128,-1.105 -4.937,-1.105 h -11.51 c -0.016,0 -0.03,0.004 -0.046,0.004 V 18.556 H 22 10.489 c -1.809,0 -3.469,0.372 -4.937,1.105 -1.931,0.966 -3.093,2.301 -3.435,3.895 H 1 c -0.552,0 -1,0.448 -1,1 0,0.552 0.448,1 1,1 h 1 l 10e-4,8.054 c 0.105,1.967 1.546,6.056 6.246,7.446 0.871,0.258 1.79,0.388 2.731,0.388 v 0 c 1.155,0 2.324,-0.194 3.476,-0.576 5.059,-1.681 13.546,-5.515 13.541,-12.215 0.01,-0.1 0.109,-1.19 0.003,-2.62 1.14,-0.863 2.922,-0.852 4.046,0.033 -0.101,1.391 -0.005,2.434 0.002,2.491 0,6.797 8.487,10.631 13.546,12.312 1.151,0.382 2.32,0.576 3.476,0.576 0.941,0 1.86,-0.13 2.731,-0.388 4.699,-1.391 6.141,-5.479 6.247,-7.5 v -8 H 59 c 0.553,0 1,-0.448 1,-1 0,-0.552 -0.447,-1.001 -1,-1.001 z M 7.707,28.263 C 7.512,28.458 7.256,28.556 7,28.556 c -0.256,0 -0.512,-0.098 -0.707,-0.293 -0.391,-0.391 -0.391,-1.023 0,-1.414 l 4,-4 c 0.391,-0.391 1.023,-0.391 1.414,0 0.391,0.391 0.391,1.023 0,1.414 z m 11,-4 -7,7 c -0.195,0.195 -0.451,0.293 -0.707,0.293 -0.256,0 -0.512,-0.098 -0.707,-0.293 -0.391,-0.391 -0.391,-1.023 0,-1.414 l 7,-7 c 0.391,-0.391 1.023,-0.391 1.414,0 0.391,0.391 0.391,1.023 0,1.414 z m 8.982,-0.351 c -0.265,-1.187 -0.722,-2.389 -1.481,-3.356 h 7.63 c -0.765,0.974 -1.223,2.186 -1.487,3.376 -1.449,-0.682 -3.207,-0.689 -4.662,-0.02 z M 37,28.556 c -0.256,0 -0.512,-0.098 -0.707,-0.293 -0.391,-0.391 -0.391,-1.023 0,-1.414 l 4,-4 c 0.391,-0.391 1.023,-0.391 1.414,0 0.391,0.391 0.391,1.023 0,1.414 l -4,4 C 37.512,28.458 37.256,28.556 37,28.556 Z m 11.707,-4.293 -7,7 c -0.195,0.195 -0.451,0.293 -0.707,0.293 -0.256,0 -0.512,-0.098 -0.707,-0.293 -0.391,-0.391 -0.391,-1.023 0,-1.414 l 7,-7 c 0.391,-0.391 1.023,-0.391 1.414,0 0.391,0.391 0.391,1.023 0,1.414 z"
         inkscape:connector-curvature="0"
         style="fill:#011d39;fill-opacity:1" />
      <g
         id="g1365"
         style="fill:#011d39;fill-opacity:1" />
      <g
         id="g1367"
         style="fill:#011d39;fill-opacity:1" />
      <g
         id="g1369"
         style="fill:#011d39;fill-opacity:1" />
      <g
         id="g1371"
         style="fill:#011d39;fill-opacity:1" />
      <g
         id="g1373"
         style="fill:#011d39;fill-opacity:1" />
      <g
         id="g1375"
         style="fill:#011d39;fill-opacity:1" />
      <g
         id="g1377"
         style="fill:#011d39;fill-opacity:1" />
      <g
         id="g1379"
         style="fill:#011d39;fill-opacity:1" />
      <g
         id="g1381"
         style="fill:#011d39;fill-opacity:1" />
      <g
         id="g1383"
         style="fill:#011d39;fill-opacity:1" />
      <g
         id="g1385"
         style="fill:#011d39;fill-opacity:1" />
      <g
         id="g1387"
         style="fill:#011d39;fill-opacity:1" />
      <g
         id="g1389"
         style="fill:#011d39;fill-opacity:1" />
      <g
         id="g1391"
         style="fill:#011d39;fill-opacity:1" />
      <g
         id="g1393"
         style="fill:#011d39;fill-opacity:1" />
    </g>
    <text
       xml:space="preserve"
       style="font-style:normal;font-weight:normal;font-size:10.58333302px;line-height:1.25;font-family:sans-serif;letter-spacing:0px;word-spacing:0px;fill:#011d39;fill-opacity:1;stroke:none;stroke-width:0.26458332;"
       x="55.186958"
       y="157.12094"
       id="text1422"><tspan
         sodipodi:role="line"
         id="tspan1420"
         x="55.186958"
         y="157.12094"
         style="font-style:normal;font-variant:normal;font-weight:normal;font-stretch:normal;font-size:50.79999924px;font-family:Quicksand;-inkscape-font-specification:Quicksand;stroke-width:0.26458332;fill:#011d39;fill-opacity:1;">RCN </tspan></text>
    <text
       xml:space="preserve"
       style="font-style:normal;font-weight:normal;font-size:10.58333302px;line-height:1.25;font-family:sans-serif;letter-spacing:0px;word-spacing:0px;fill:#011d39;fill-opacity:1;stroke:none;stroke-width:0.26458332;"
       x="81.395462"
       y="179.23003"
       id="text5130"><tspan
         sodipodi:role="line"
         id="tspan5128"
         x="81.395462"
         y="179.23003"
         style="font-style:normal;font-variant:normal;font-weight:normal;font-stretch:normal;font-size:25.39999962px;font-family:Quicksand;-inkscape-font-specification:Quicksand;stroke-width:0.26458332;fill:#011d39;fill-opacity:1;">Soft</tspan></text>
    <rect
       style="fill:#011d39;fill-opacity:1;stroke:#000000;stroke-width:0.26458332"
       id="rect5132"
       width="18.217472"
       height="2.2081783"
       x="60.724907"
       y="169.47769" />
    <rect
       y="169.47769"
       x="132.69156"
       height="2.2081783"
       width="18.217472"
       id="rect5158"
       style="fill:#011d39;fill-opacity:1;stroke:#000000;stroke-width:0.26458332" />
  </g>
</svg>
