<?xml version="1.0" encoding="UTF-8" standalone="no"?>
<svg
   xmlns:dc="http://purl.org/dc/elements/1.1/"
   xmlns:cc="http://creativecommons.org/ns#"
   xmlns:rdf="http://www.w3.org/1999/02/22-rdf-syntax-ns#"
   xmlns:svg="http://www.w3.org/2000/svg"
   xmlns="http://www.w3.org/2000/svg"
   xmlns:sodipodi="http://sodipodi.sourceforge.net/DTD/sodipodi-0.dtd"
   xmlns:inkscape="http://www.inkscape.org/namespaces/inkscape"
   height="512pt"
   viewBox="0 0 512 512"
   width="512pt"
   version="1.1"
   id="svg4"
   sodipodi:docname="menu.svg"
   inkscape:version="0.92.4 (5da689c313, 2019-01-14)">
  <metadata
     id="metadata10">
    <rdf:RDF>
      <cc:Work
         rdf:about="">
        <dc:format>image/svg+xml</dc:format>
        <dc:type
           rdf:resource="http://purl.org/dc/dcmitype/StillImage" />
      </cc:Work>
    </rdf:RDF>
  </metadata>
  <defs
     id="defs8" />
  <sodipodi:namedview
     pagecolor="#ffffff"
     bordercolor="#666666"
     borderopacity="1"
     objecttolerance="10"
     gridtolerance="10"
     guidetolerance="10"
     inkscape:pageopacity="0"
     inkscape:pageshadow="2"
     inkscape:window-width="1366"
     inkscape:window-height="705"
     id="namedview6"
     showgrid="false"
     inkscape:zoom="0.34570313"
     inkscape:cx="341.33333"
     inkscape:cy="341.33333"
     inkscape:window-x="-8"
     inkscape:window-y="-8"
     inkscape:window-maximized="1"
     inkscape:current-layer="svg4" />
  <path
     d="m256 0c-141.164062 0-256 114.835938-256 256s114.835938 256 256 256 256-114.835938 256-256-114.835938-256-256-256zm85.332031 362.667969h-170.664062c-11.777344 0-21.335938-9.558594-21.335938-21.335938 0-11.773437 9.558594-21.332031 21.335938-21.332031h170.664062c11.777344 0 21.335938 9.558594 21.335938 21.332031 0 11.777344-9.558594 21.335938-21.335938 21.335938zm0-85.335938h-170.664062c-11.777344 0-21.335938-9.554687-21.335938-21.332031s9.558594-21.332031 21.335938-21.332031h170.664062c11.777344 0 21.335938 9.554687 21.335938 21.332031s-9.558594 21.332031-21.335938 21.332031zm0-85.332031h-170.664062c-11.777344 0-21.335938-9.558594-21.335938-21.332031 0-11.777344 9.558594-21.335938 21.335938-21.335938h170.664062c11.777344 0 21.335938 9.558594 21.335938 21.335938 0 11.773437-9.558594 21.332031-21.335938 21.332031zm0 0"
     id="path2"
     style="fill:#011d39;fill-opacity:1" />
</svg>
