<svg id="Capa_1" enable-background="new 0 0 512 512" height="512" viewBox="0 0 512 512" width="512" xmlns="http://www.w3.org/2000/svg"><g><path d="m120 362h-88v90h30.832v-29.13c47.997 55.616 118.209 89.13 192.949 89.13 21.563 0 43.477-2.695 64.219-8.027l-7.5-29.063c-18.252 4.702-37.676 7.09-56.719 7.09-70.959 0-137.584-33.975-179.81-90h44.029z"/><path d="m255.781 30c70.972 0 137.582 33.977 179.804 90h-44.585v30h88v-90h-31v29.028c-47.997-55.56-117.534-89.028-192.219-89.028-21.562 0-43.039 2.695-63.781 8.027l7.5 29.063c18.252-4.702 37.238-7.09 56.281-7.09z"/><path d="m474.91 199.471c4.717 18.31 7.09 37.515 7.09 56.529 0 70.968-33.979 137.587-90 179.795v-43.795h-30v87h90v-31h-28.943c55.495-47.99 88.943-117.35 88.943-192 0-21.533-2.695-43.243-8.027-64z"/><path d="m0 256c0 21.533 2.695 43.243 8.027 64l29.063-7.471c-4.717-18.31-7.09-37.515-7.09-56.529 0-70.975 33.979-137.606 90-179.821v44.821h30v-88h-90v31h29.165c-55.64 47.994-89.165 117.249-89.165 192z"/><path d="m151.41 247.577c-.531 5.58-.561 10.951 0 16.846l-34.805 20.098 45 77.959 35.098-20.288c4.57 3.149 9.346 5.918 14.297 8.291v40.517h90v-40.518c4.951-2.373 9.727-5.142 14.297-8.291l35.098 20.288 45-77.959-34.805-20.098c.531-5.58.561-10.951 0-16.846l34.805-20.098-45-77.959-35.098 20.288c-4.57-3.149-9.346-5.918-14.297-8.291v-40.516h-90v40.518c-4.951 2.373-9.727 5.142-14.297 8.291l-35.098-20.288-45 77.959zm104.985-36.577c24.814 0 44.605 20.186 44.605 45s-19.791 45-44.605 45-45.395-20.186-45.395-45 20.58-45 45.395-45z"/></g></svg>